<svg width="118" height="29" viewBox="0 0 118 29" fill="none" xmlns="http://www.w3.org/2000/svg">
<path d="M18.5 26L16.5 28.5H31.2735L25.5 18.5C26.8692 16.8333 29.2862 12.3 28 7.5C26.7138 2.7 23.5 0 19 0H1.5L7.5 10.5L9.5 8L6 2.5H19C22.2 2.5 24.3333 5.5 25 7C25.6031 8.16667 26.3475 11.3 24.5 14.5C22.6525 17.7 18.0635 18.5 16 18.5L11 26H5L16 8.5L20.5 16L22.5 14.5L16.5 4.5H15L0 28.5H12.6699L17 21C19.4 21 21.8315 20 22.7473 19.5L26.5 26H18.5Z" fill="white"/>
<path d="M47.9801 12.52H42.7401L41.9001 15H38.3201L43.4001 0.960007H47.3601L52.4401 15H48.8201L47.9801 12.52ZM47.1001 9.88001L45.3601 4.74001L43.6401 9.88001H47.1001Z" fill="white"/>
<path d="M65.0862 5.48001C65.0862 6.29334 64.8995 7.04001 64.5262 7.72001C64.1528 8.38667 63.5795 8.92667 62.8062 9.34001C62.0328 9.75334 61.0728 9.96001 59.9262 9.96001H57.8062V15H54.3862V0.960007H59.9262C61.0462 0.960007 61.9928 1.15334 62.7662 1.54001C63.5395 1.92667 64.1195 2.46001 64.5062 3.14001C64.8928 3.82001 65.0862 4.60001 65.0862 5.48001ZM59.6662 7.24001C60.3195 7.24001 60.8062 7.08667 61.1262 6.78001C61.4462 6.47334 61.6062 6.04001 61.6062 5.48001C61.6062 4.92001 61.4462 4.48667 61.1262 4.18001C60.8062 3.87334 60.3195 3.72001 59.6662 3.72001H57.8062V7.24001H59.6662Z" fill="white"/>
<path d="M75.4066 15L70.6866 8.80001V15H67.2666V0.960007H70.6866V7.12001L75.3666 0.960007H79.3866L73.9466 7.84001L79.5866 15H75.4066Z" fill="white"/>
<path d="M85.0319 0.960007V15H81.6119V0.960007H85.0319Z" fill="white"/>
<path d="M100.47 15H97.0504L91.3304 6.34001V15H87.9104V0.960007H91.3304L97.0504 9.66001V0.960007H100.47V15Z" fill="white"/>
<path d="M112.089 12.52H106.849L106.009 15H102.429L107.509 0.960007H111.469L116.549 15H112.929L112.089 12.52ZM111.209 9.88001L109.469 4.74001L107.749 9.88001H111.209Z" fill="white"/>
<rect x="37" y="19" width="81" height="1" fill="white"/>
<path d="M37.83 24.515V26.72C37.83 27.03 37.905 27.26 38.055 27.41C38.2083 27.56 38.42 27.635 38.69 27.635C38.9567 27.635 39.165 27.56 39.315 27.41C39.4683 27.26 39.545 27.03 39.545 26.72V24.515H40V26.715C40 27.005 39.9417 27.25 39.825 27.45C39.7083 27.6467 39.55 27.7933 39.35 27.89C39.1533 27.9867 38.9317 28.035 38.685 28.035C38.4383 28.035 38.215 27.9867 38.015 27.89C37.8183 27.7933 37.6617 27.6467 37.545 27.45C37.4317 27.25 37.375 27.005 37.375 26.715V24.515H37.83Z" fill="white"/>
<path d="M41.214 27.63H42.434V28H40.759V24.515H41.214V27.63Z" fill="white"/>
<path d="M45.0622 24.515V24.885H44.1122V28H43.6572V24.885H42.7022V24.515H45.0622Z" fill="white"/>
<path d="M46.0773 24.515V28H45.6223V24.515H46.0773Z" fill="white"/>
<path d="M50.3878 24.54V28H49.9328V25.42L48.7828 28H48.4628L47.3078 25.415V28H46.8528V24.54H47.3428L48.6228 27.4L49.9028 24.54H50.3878Z" fill="white"/>
<path d="M53.2194 27.225H51.6994L51.4194 28H50.9394L52.1994 24.535H52.7244L53.9794 28H53.4994L53.2194 27.225ZM53.0894 26.855L52.4594 25.095L51.8294 26.855H53.0894Z" fill="white"/>
<path d="M56.6736 24.515V24.885H55.7236V28H55.2686V24.885H54.3136V24.515H56.6736Z" fill="white"/>
<path d="M57.6886 24.885V26.05H58.9586V26.425H57.6886V27.625H59.1086V28H57.2336V24.51H59.1086V24.885H57.6886Z" fill="white"/>
<path d="M60.9601 26.255C60.9601 25.915 61.0368 25.61 61.1901 25.34C61.3435 25.0667 61.5518 24.8533 61.8151 24.7C62.0818 24.5467 62.3768 24.47 62.7001 24.47C63.0801 24.47 63.4118 24.5617 63.6951 24.745C63.9785 24.9283 64.1851 25.1883 64.3151 25.525H63.7701C63.6735 25.315 63.5335 25.1533 63.3501 25.04C63.1701 24.9267 62.9535 24.87 62.7001 24.87C62.4568 24.87 62.2384 24.9267 62.0451 25.04C61.8518 25.1533 61.7001 25.315 61.5901 25.525C61.4801 25.7317 61.4251 25.975 61.4251 26.255C61.4251 26.5317 61.4801 26.775 61.5901 26.985C61.7001 27.1917 61.8518 27.3517 62.0451 27.465C62.2384 27.5783 62.4568 27.635 62.7001 27.635C62.9535 27.635 63.1701 27.58 63.3501 27.47C63.5335 27.3567 63.6735 27.195 63.7701 26.985H64.3151C64.1851 27.3183 63.9785 27.5767 63.6951 27.76C63.4118 27.94 63.0801 28.03 62.7001 28.03C62.3768 28.03 62.0818 27.955 61.8151 27.805C61.5518 27.6517 61.3435 27.44 61.1901 27.17C61.0368 26.9 60.9601 26.595 60.9601 26.255Z" fill="white"/>
<path d="M67.0524 27.225H65.5324L65.2524 28H64.7724L66.0324 24.535H66.5574L67.8124 28H67.3324L67.0524 27.225ZM66.9224 26.855L66.2924 25.095L65.6624 26.855H66.9224Z" fill="white"/>
<path d="M71.8966 24.54V28H71.4416V25.42L70.2916 28H69.9716L68.8166 25.415V28H68.3616V24.54H68.8516L70.1316 27.4L71.4116 24.54H71.8966Z" fill="white"/>
<path d="M73.1232 24.885V26.05H74.3932V26.425H73.1232V27.625H74.5432V28H72.6682V24.51H74.5432V24.885H73.1232Z" fill="white"/>
<path d="M77.0667 28L76.2367 26.575H75.6867V28H75.2317V24.515H76.3567C76.62 24.515 76.8417 24.56 77.0217 24.65C77.205 24.74 77.3417 24.8617 77.4317 25.015C77.5217 25.1683 77.5667 25.3433 77.5667 25.54C77.5667 25.78 77.4967 25.9917 77.3567 26.175C77.22 26.3583 77.0133 26.48 76.7367 26.54L77.6117 28H77.0667ZM75.6867 26.21H76.3567C76.6033 26.21 76.7883 26.15 76.9117 26.03C77.035 25.9067 77.0967 25.7433 77.0967 25.54C77.0967 25.3333 77.035 25.1733 76.9117 25.06C76.7917 24.9467 76.6067 24.89 76.3567 24.89H75.6867V26.21Z" fill="white"/>
<path d="M80.3337 27.225H78.8137L78.5337 28H78.0537L79.3137 24.535H79.8387L81.0937 28H80.6137L80.3337 27.225ZM80.2037 26.855L79.5737 25.095L78.9437 26.855H80.2037Z" fill="white"/>
<path d="M85.0858 27.38H83.7758L83.5658 28H82.6708L83.9408 24.49H84.9308L86.2008 28H85.2958L85.0858 27.38ZM84.8658 26.72L84.4308 25.435L84.0008 26.72H84.8658Z" fill="white"/>
<path d="M86.4423 26.24C86.4423 25.8933 86.5173 25.585 86.6673 25.315C86.8173 25.0417 87.0257 24.83 87.2923 24.68C87.5623 24.5267 87.8673 24.45 88.2073 24.45C88.624 24.45 88.9807 24.56 89.2773 24.78C89.574 25 89.7723 25.3 89.8723 25.68H88.9323C88.8623 25.5333 88.7623 25.4217 88.6323 25.345C88.5057 25.2683 88.3607 25.23 88.1973 25.23C87.934 25.23 87.7207 25.3217 87.5573 25.505C87.394 25.6883 87.3123 25.9333 87.3123 26.24C87.3123 26.5467 87.394 26.7917 87.5573 26.975C87.7207 27.1583 87.934 27.25 88.1973 27.25C88.3607 27.25 88.5057 27.2117 88.6323 27.135C88.7623 27.0583 88.8623 26.9467 88.9323 26.8H89.8723C89.7723 27.18 89.574 27.48 89.2773 27.7C88.9807 27.9167 88.624 28.025 88.2073 28.025C87.8673 28.025 87.5623 27.95 87.2923 27.8C87.0257 27.6467 86.8173 27.435 86.6673 27.165C86.5173 26.895 86.4423 26.5867 86.4423 26.24Z" fill="white"/>
<path d="M90.2509 26.24C90.2509 25.8933 90.3259 25.585 90.4759 25.315C90.6259 25.0417 90.8343 24.83 91.1009 24.68C91.3709 24.5267 91.6759 24.45 92.0159 24.45C92.4326 24.45 92.7893 24.56 93.0859 24.78C93.3826 25 93.5809 25.3 93.6809 25.68H92.7409C92.6709 25.5333 92.5709 25.4217 92.4409 25.345C92.3143 25.2683 92.1693 25.23 92.0059 25.23C91.7426 25.23 91.5293 25.3217 91.3659 25.505C91.2026 25.6883 91.1209 25.9333 91.1209 26.24C91.1209 26.5467 91.2026 26.7917 91.3659 26.975C91.5293 27.1583 91.7426 27.25 92.0059 27.25C92.1693 27.25 92.3143 27.2117 92.4409 27.135C92.5709 27.0583 92.6709 26.9467 92.7409 26.8H93.6809C93.5809 27.18 93.3826 27.48 93.0859 27.7C92.7893 27.9167 92.4326 28.025 92.0159 28.025C91.6759 28.025 91.3709 27.95 91.1009 27.8C90.8343 27.6467 90.6259 27.435 90.4759 27.165C90.3259 26.895 90.2509 26.5867 90.2509 26.24Z" fill="white"/>
<path d="M95.0595 25.175V25.885H96.2045V26.545H95.0595V27.315H96.3545V28H94.2045V24.49H96.3545V25.175H95.0595Z" fill="white"/>
<path d="M98.1796 28.035C97.9229 28.035 97.6929 27.9933 97.4896 27.91C97.2863 27.8267 97.1229 27.7033 96.9996 27.54C96.8796 27.3767 96.8163 27.18 96.8096 26.95H97.7196C97.7329 27.08 97.7779 27.18 97.8546 27.25C97.9313 27.3167 98.0313 27.35 98.1546 27.35C98.2813 27.35 98.3813 27.3217 98.4546 27.265C98.5279 27.205 98.5646 27.1233 98.5646 27.02C98.5646 26.9333 98.5346 26.8617 98.4746 26.805C98.4179 26.7483 98.3463 26.7017 98.2596 26.665C98.1763 26.6283 98.0563 26.5867 97.8996 26.54C97.6729 26.47 97.4879 26.4 97.3446 26.33C97.2013 26.26 97.0779 26.1567 96.9746 26.02C96.8713 25.8833 96.8196 25.705 96.8196 25.485C96.8196 25.1583 96.9379 24.9033 97.1746 24.72C97.4113 24.5333 97.7196 24.44 98.0996 24.44C98.4863 24.44 98.7979 24.5333 99.0346 24.72C99.2713 24.9033 99.3979 25.16 99.4146 25.49H98.4896C98.4829 25.3767 98.4413 25.2883 98.3646 25.225C98.2879 25.1583 98.1896 25.125 98.0696 25.125C97.9663 25.125 97.8829 25.1533 97.8196 25.21C97.7563 25.2633 97.7246 25.3417 97.7246 25.445C97.7246 25.5583 97.7779 25.6467 97.8846 25.71C97.9913 25.7733 98.1579 25.8417 98.3846 25.915C98.6113 25.9917 98.7946 26.065 98.9346 26.135C99.0779 26.205 99.2013 26.3067 99.3046 26.44C99.4079 26.5733 99.4596 26.745 99.4596 26.955C99.4596 27.155 99.4079 27.3367 99.3046 27.5C99.2046 27.6633 99.0579 27.7933 98.8646 27.89C98.6713 27.9867 98.4429 28.035 98.1796 28.035Z" fill="white"/>
<path d="M101.256 28.035C100.999 28.035 100.769 27.9933 100.566 27.91C100.362 27.8267 100.199 27.7033 100.076 27.54C99.9558 27.3767 99.8924 27.18 99.8858 26.95H100.796C100.809 27.08 100.854 27.18 100.931 27.25C101.007 27.3167 101.107 27.35 101.231 27.35C101.357 27.35 101.457 27.3217 101.531 27.265C101.604 27.205 101.641 27.1233 101.641 27.02C101.641 26.9333 101.611 26.8617 101.551 26.805C101.494 26.7483 101.422 26.7017 101.336 26.665C101.252 26.6283 101.132 26.5867 100.976 26.54C100.749 26.47 100.564 26.4 100.421 26.33C100.277 26.26 100.154 26.1567 100.051 26.02C99.9474 25.8833 99.8958 25.705 99.8958 25.485C99.8958 25.1583 100.014 24.9033 100.251 24.72C100.487 24.5333 100.796 24.44 101.176 24.44C101.562 24.44 101.874 24.5333 102.111 24.72C102.347 24.9033 102.474 25.16 102.491 25.49H101.566C101.559 25.3767 101.517 25.2883 101.441 25.225C101.364 25.1583 101.266 25.125 101.146 25.125C101.042 25.125 100.959 25.1533 100.896 25.21C100.832 25.2633 100.801 25.3417 100.801 25.445C100.801 25.5583 100.854 25.6467 100.961 25.71C101.067 25.7733 101.234 25.8417 101.461 25.915C101.687 25.9917 101.871 26.065 102.011 26.135C102.154 26.205 102.277 26.3067 102.381 26.44C102.484 26.5733 102.536 26.745 102.536 26.955C102.536 27.155 102.484 27.3367 102.381 27.5C102.281 27.6633 102.134 27.7933 101.941 27.89C101.747 27.9867 101.519 28.035 101.256 28.035Z" fill="white"/>
<path d="M104.722 28.035C104.392 28.035 104.089 27.9583 103.812 27.805C103.539 27.6517 103.32 27.4383 103.157 27.165C102.997 26.8883 102.917 26.5783 102.917 26.235C102.917 25.8917 102.997 25.5833 103.157 25.31C103.32 25.0367 103.539 24.8233 103.812 24.67C104.089 24.5167 104.392 24.44 104.722 24.44C105.052 24.44 105.354 24.5167 105.627 24.67C105.904 24.8233 106.12 25.0367 106.277 25.31C106.437 25.5833 106.517 25.8917 106.517 26.235C106.517 26.5783 106.437 26.8883 106.277 27.165C106.117 27.4383 105.9 27.6517 105.627 27.805C105.354 27.9583 105.052 28.035 104.722 28.035ZM104.722 27.255C105.002 27.255 105.225 27.1617 105.392 26.975C105.562 26.7883 105.647 26.5417 105.647 26.235C105.647 25.925 105.562 25.6783 105.392 25.495C105.225 25.3083 105.002 25.215 104.722 25.215C104.439 25.215 104.212 25.3067 104.042 25.49C103.875 25.6733 103.792 25.9217 103.792 26.235C103.792 26.545 103.875 26.7933 104.042 26.98C104.212 27.1633 104.439 27.255 104.722 27.255Z" fill="white"/>
<path d="M108.783 28L108.053 26.675H107.848V28H106.993V24.49H108.428C108.704 24.49 108.939 24.5383 109.133 24.635C109.329 24.7317 109.476 24.865 109.573 25.035C109.669 25.2017 109.718 25.3883 109.718 25.595C109.718 25.8283 109.651 26.0367 109.518 26.22C109.388 26.4033 109.194 26.5333 108.938 26.61L109.748 28H108.783ZM107.848 26.07H108.378C108.534 26.07 108.651 26.0317 108.728 25.955C108.808 25.8783 108.848 25.77 108.848 25.63C108.848 25.4967 108.808 25.3917 108.728 25.315C108.651 25.2383 108.534 25.2 108.378 25.2H107.848V26.07Z" fill="white"/>
<path d="M111.109 24.49V28H110.254V24.49H111.109Z" fill="white"/>
<path d="M112.584 25.175V25.885H113.729V26.545H112.584V27.315H113.879V28H111.729V24.49H113.879V25.175H112.584Z" fill="white"/>
<path d="M115.704 28.035C115.447 28.035 115.217 27.9933 115.014 27.91C114.811 27.8267 114.647 27.7033 114.524 27.54C114.404 27.3767 114.341 27.18 114.334 26.95H115.244C115.257 27.08 115.302 27.18 115.379 27.25C115.456 27.3167 115.556 27.35 115.679 27.35C115.806 27.35 115.906 27.3217 115.979 27.265C116.052 27.205 116.089 27.1233 116.089 27.02C116.089 26.9333 116.059 26.8617 115.999 26.805C115.942 26.7483 115.871 26.7017 115.784 26.665C115.701 26.6283 115.581 26.5867 115.424 26.54C115.197 26.47 115.012 26.4 114.869 26.33C114.726 26.26 114.602 26.1567 114.499 26.02C114.396 25.8833 114.344 25.705 114.344 25.485C114.344 25.1583 114.462 24.9033 114.699 24.72C114.936 24.5333 115.244 24.44 115.624 24.44C116.011 24.44 116.322 24.5333 116.559 24.72C116.796 24.9033 116.922 25.16 116.939 25.49H116.014C116.007 25.3767 115.966 25.2883 115.889 25.225C115.812 25.1583 115.714 25.125 115.594 25.125C115.491 25.125 115.407 25.1533 115.344 25.21C115.281 25.2633 115.249 25.3417 115.249 25.445C115.249 25.5583 115.302 25.6467 115.409 25.71C115.516 25.7733 115.682 25.8417 115.909 25.915C116.136 25.9917 116.319 26.065 116.459 26.135C116.602 26.205 116.726 26.3067 116.829 26.44C116.932 26.5733 116.984 26.745 116.984 26.955C116.984 27.155 116.932 27.3367 116.829 27.5C116.729 27.6633 116.582 27.7933 116.389 27.89C116.196 27.9867 115.967 28.035 115.704 28.035Z" fill="white"/>
</svg>
